Coordinates

Units are S.I. units (second, meters, Newtons, ...)
If the header above contains a line with 'inDegrees', this indicates whether rotational values are in degrees (yes) or radians (no).

inDegrees=no
nColumns=21
nRows=15
DataType=double
version=3
OpenSimVersion=4.6-2026-03-31-d6972f9e6
endheader
time	/jointset/ground_pelvis/pelvis_tilt/value	/jointset/ground_pelvis/pelvis_list/value	/jointset/ground_pelvis/pelvis_rotation/value	/jointset/ground_pelvis/pelvis_tx/value	/jointset/ground_pelvis/pelvis_ty/value	/jointset/ground_pelvis/pelvis_tz/value	/jointset/hip_r/hip_flexion_r/value	/jointset/hip_r/hip_adduction_r/value	/jointset/hip_r/hip_rotation_r/value	/jointset/walker_knee_r/knee_angle_r/value	/jointset/patellofemoral_r/knee_angle_r_beta/value	/jointset/ankle_r/ankle_angle_r/value	/jointset/subtalar_r/subtalar_angle_r/value	/jointset/hip_l/hip_flexion_l/value	/jointset/hip_l/hip_adduction_l/value	/jointset/hip_l/hip_rotation_l/value	/jointset/walker_knee_l/knee_angle_l/value	/jointset/patellofemoral_l/knee_angle_l_beta/value	/jointset/ankle_l/ankle_angle_l/value	/jointset/subtalar_l/subtalar_angle_l/value
139.996	0.1311864937326534	-0.125864993744502	1.41686732233863	0.8830685000000553	0.941797340000064	-0.8419359700000487	0.4288424009379503	0.2309219848728953	0.05447702145822973	0.2490401092587085	0.2490401100000201	-0.4188097347470874	-0.3301968965389768	-0.2254751630886005	-0.09642935600062442	0.02545291751667569	0.6921063126638782	0.6921063100000518	-0.6144662926169494	-0.2766739902086769
140	0.1367387430111559	-0.118029182645284	1.419870292999976	0.8833289598748133	0.9390461428728727	-0.8421280656322071	0.416844287000498	0.2375210209560826	0.06175724148017724	0.2724741217325851	0.2724741221265498	-0.3721549057319662	-0.3460883033813715	-0.2245058545946055	-0.1119394887319018	0.01255554392667243	0.7220384449356247	0.7220384429774619	-0.6137539350295658	-0.2909151751939322
140.004	0.1423684438731945	-0.110280168941705	1.422794638792612	0.883592324147443	0.9362982370771835	-0.8423004108625723	0.4049341775456605	0.2442517502090973	0.06899049434625015	0.2958227080278112	0.2958227080848579	-0.3260141658570392	-0.3618992792808599	-0.2234139279803301	-0.127577308213936	-0.0003045187726015712	0.7519559125630345	0.7519559112860301	-0.6130010027504862	-0.30521211230143
140.008	0.1481481368068126	-0.1027027934658442	1.425563821761504	0.8838613307663733	0.9335572711936824	-0.8424337829951498	0.3931969308476228	0.2512381411870448	0.07613411445716115	0.3190023792155692	0.3190023789558232	-0.2808848123058517	-0.3775533558354822	-0.2220767621371939	-0.1434624159955916	-0.0130886135324247	0.78184434953128	0.7818443488879967	-0.6121655066883995	-0.3196155576607163
140.012	0.1541407016979656	-0.09537802536583175	1.428105461714516	0.8841383880213398	0.9308275690782377	-0.8425100015246103	0.3817112635905444	0.2585890215021687	0.08315351250556929	0.3419333292835146	0.3419333287354731	-0.2372314325589622	-0.3929811735780444	-0.2203719385591491	-0.1596985651324979	-0.02575520796792944	0.8116896735030086	0.8116896734258845	-0.6112030150820034	-0.3341665466547947
140.016	0.1603949693726283	-0.08838108601116144	1.430353380826748	0.8844254178550137	0.9281143840526095	-0.842512416104685	0.3705469649205637	0.266391291881431	0.09002500519929131	0.3645407747422896	0.3645407739411231	-0.1954717255790855	-0.4081223594044721	-0.2181778609999924	-0.1763665512222188	-0.03825809954488989	0.841477532427814	0.8414775328327929	-0.6100662928493317	-0.3488921686113119
140.02	0.1669418898213362	-0.08177964643022524	1.432249590103567	0.8847237098160129	0.9254240759810762	-0.8424263529012439	0.3597623955371514	0.2747040614775811	0.09673742366537967	0.3867557376920165	0.386755736677664	-0.155964678549821	-0.4229258955227142	-0.2153748633845586	-0.1935180575476516	-0.05054443069562938	0.8711921459843656	0.871192146775168	-0.6087057409865506	-0.3638020409617923
140.024	0.1737914374753354	-0.07563219741818722	1.433746139351265	0.8850337927897021	0.9227642040617579	-0.8422395025464284	0.3494024059466952	0.2835539661592176	0.1032923863332663	0.4085152228495931	0.4085152216646987	-0.1190014394835164	-0.4373489034637107	-0.2118467310167881	-0.211170723393881	-0.062552763725824	0.900814628589674	0.900814629662773	-0.6070706047512594	-0.3788856529479371
140.028	0.180930473644158	-0.06998667034245612	1.434806711611312	0.8853553362889043	0.9201435369235758	-0.8419422332613925	0.3394967500675192	0.2929319678270436	0.1097033011059919	0.4297617855323688	0.4297617842201013	-0.08479921990345192	-0.4513541992943615	-0.2074825524338374	-0.229304738126491	-0.0742116203000889	0.9303209758921192	0.9303209771423731	-0.6051107562546773	-0.394110686764488
140.032	0.1883217991456194	-0.06487934142088782	1.435407836543998	0.8856870940899664	0.9175719890857075	-0.8415278141415038	0.3300590016862954	0.3027919277370846	0.1159932805895179	0.4504425389467079	0.4504425375486795	-0.05349855670304956	-0.4649073086797542	-0.2021788467684036	-0.247861261370673	-0.08543892490995178	0.959679948182324	0.9596799495088439	-0.6027787651024085	-0.4094223780287575
140.036	0.1959045165903512	-0.0603340441148847	1.435539653084531	0.8860268956105533	0.9150604960012944	-0.8409925369988187	0.3210859890837626	0.3130510801777869	0.1221921878299118	0.4705077325917252	0.4705077311463501	-0.02516396286002327	-0.4779735223273565	-0.1958418686541572	-0.2667428093927739	-0.09614259527174551	0.9888510952130384	0.9888510965246274	-0.6000319893813792	-0.4247439427204231
140.04	0.2035956609115716	-0.05636170071306179	1.435206236478905	0.8863716802620629	0.9126208427305464	-0.8403357319142516	0.3125577554767134	0.3235923107718974	0.1283330520656155	0.4899090736113294	0.4899090721528767	0.0002123553281463213	-0.4905153429099473	-0.1883899598261161	-0.2858155263903658	-0.1062222233717438	1.017783128242502	1.017783129462087	-0.5968344795186099	-0.4399780181076461
140.044	0.2112929709450028	-0.05296017538419617	1.43442553868269	0.8867175666968353	0.9102654614867621	-0.8395596789739468	0.3044380252578177	0.334268033129742	0.1344481352162317	0.5085979580630283	0.5085979566213725	0.0227041813470876	-0.5024905815585392	-0.1797558200756482	-0.3049131487834438	-0.1155716537489506	1.046412793992846	1.046412795060613	-0.5931585312836887	-0.4550089910682492
140.048	0.2188786467865083	-0.05011447677907061	1.433228974325952	0.8870599511734126	0.9080072086870232	-0.8386694236115665	0.2966751704732565	0.3449054361021098	0.1405649506333156	0.5265237807318129	0.5265237793326449	0.04244287152869308	-0.5138512882845003	-0.1698885560741069	-0.3238424520802001	-0.1240822869944265	1.074664369949842	1.074664370825048	-0.5889857691670699	-0.4697060755662388
140.052	0.2262239006381331	-0.04779734876359449	1.431660670586026	0.8873936299940329	0.9058591286737093	-0.8376725061455651	0.2892036829657627	0.355312840734703	0.1467025153381879	0.5436324930350243	0.5436324917002431	0.05960737827238537	-0.5245435838996678	-0.1587553630572778	-0.3423899250788832	-0.1316469290172	1.102449858259936	1.102449858921476	-0.5843076956665365	-0.4839270023009879
